#!OML:ASF H:\ManfredObstacles\Project 1\Capture day 2\Session 1\male.ASF
:FULLY-SPECIFIED
:DEGREES
200
root 2.29526 7.70773 17.3519 -156.616 -5.45748 176.308
lowerback 41.9616 4.06055 -1.11348
upperback 13.7352 -0.435919 -2.51113
thorax -4.68656 -1.89986 -1.77811
lowerneck -35.8399 -4.06927 -1.64316
upperneck 22.0105 -7.4799 8.0903
head 13.7501 -2.16296 1.92341
rclavicle -1.99779e-014 -1.20762e-014
rhumerus 42.6409 -3.38372 -69.4563
rradius 35.2486
rwrist 28.7476
rhand -12.2879 -15.7829
rfingers 7.12502
rthumb 13.7796 -45.3066
lclavicle -1.99779e-014 -1.20762e-014
lhumerus 56.1851 -12.2858 57.3641
lradius 31.6974
lwrist -37.1827
lhand -2.09085 14.9088
lfingers 7.12502
lthumb 23.5863 43.4823
rfemur -89.362 8.46735 31.7242
rtibia 147.522
rfoot -39.0184 -34.7541
rtoes -36.9281
lfemur -88.8843 33.5561 -21.1716
ltibia 149.47
lfoot -20.1702 26.0354
ltoes -5.735
201
root 2.29765 7.7839 17.2192 -155.887 -5.32405 176.125
lowerback 41.6789 4.02 -1.21005
upperback 13.6533 -0.446505 -2.55561
thorax -4.69827 -1.8784 -1.77276
lowerneck -35.6013 -4.04636 -1.70005
upperneck 21.906 -7.4218 8.13601
head 13.6655 -2.14611 1.96261
rclavicle -2.15681e-014 4.76835e-014
rhumerus 41.76 -2.87768 -69.0969
rradius 36.0132
rwrist 28.6906
rhand -12.8237 -15.8268
rfingers 7.12502
rthumb 13.2632 -45.3848
lclavicle -2.15681e-014 4.76835e-014
lhumerus 55.7034 -12.6653 56.653
lradius 32.0197
lwrist -36.813
lhand -2.69897 15.1313
lfingers 7.12502
lthumb 23.0028 43.7787
rfemur -88.9524 8.35401 31.5359
rtibia 147.026
rfoot -38.6144 -34.7305
rtoes -37.1175
lfemur -88.4595 33.534 -21.422
ltibia 148.841
lfoot -19.7273 25.5941
ltoes -5.27396
202
root 2.29969 7.86361 17.0821 -155.156 -5.18163 175.95
lowerback 41.3828 3.98068 -1.34902
upperback 13.5696 -0.470049 -2.57701
thorax -4.70722 -1.86587 -1.71623
lowerneck -35.3467 -4.01613 -1.80696
upperneck 21.8152 -7.32565 8.17377
head 13.5826 -2.11809 2.01511
rclavicle 1.35174e-014 -2.83268e-015
rhumerus 40.9316 -2.28282 -68.8099
rradius 36.5653
rwrist 28.6992
rhand -13.4716 -15.8336
rfingers 7.12502
rthumb 12.6386 -45.4312
lclavicle 1.35174e-014 -2.83268e-015
lhumerus 55.0835 -12.9863 55.9883
lradius 32.3401
lwrist -36.533
lhand -3.40665 15.2837
lfingers 7.12502
lthumb 22.3236 44.0141
rfemur -88.51 8.24852 31.3521
rtibia 146.482
rfoot -38.1805 -34.7262
rtoes -37.3
lfemur -88.0251 33.5173 -21.6752
ltibia 148.172
lfoot -19.2858 25.1118
ltoes -4.75938
203
root 2.30114 7.94688 16.9415 -154.426 -5.0332 175.786
lowerback 41.0796 3.93435 -1.49892
upperback 13.4876 -0.506957 -2.59234
thorax -4.71124 -1.86101 -1.64264
lowerneck -35.1433 -3.98004 -1.91205
upperneck 21.7705 -7.21037 8.16263
head 13.5235 -2.08539 2.05236
rclavicle 1.23246e-014 6.06293e-015
rhumerus 40.1938 -1.66888 -68.6448
rradius 36.9108
rwrist 28.7508
rhand -14.2198 -15.8457
rfingers 7.12502
rthumb 11.9171 -45.4865
lclavicle 1.23246e-014 6.06293e-015
lhumerus 54.3539 -13.2745 55.3696
lradius 32.6764
lwrist -36.2887
lhand -4.18708 15.3941
lfingers 7.12502
lthumb 21.5743 44.2123
rfemur -88.0475 8.1447 31.1651
rtibia 145.886
rfoot -37.7289 -34.6952
rtoes -37.4596
lfemur -87.5896 33.5037 -21.9324
ltibia 147.464
lfoot -18.842 24.5908
ltoes -4.3483
204
root 2.30175 8.0335 16.7976 -153.689 -4.8823 175.64
lowerback 40.7645 3.87134 -1.65271
upperback 13.3997 -0.562764 -2.60069
thorax -4.71735 -1.86509 -1.55246
lowerneck -34.957 -3.91787 -1.99051
upperneck 21.7413 -7.04887 8.07712
head 13.4654 -2.03985 2.06562
rclavicle 2.127e-014 8.17502e-014
rhumerus 39.5444 -1.05619 -68.637
rradius 37.1301
rwrist 28.7646
rhand -14.9851 -15.8614
rfingers 7.12502
rthumb 11.1791 -45.5436
lclavicle 2.127e-014 8.17502e-014
lhumerus 53.4979 -13.5214 54.8679
lradius 33.0159
lwrist -36.1017
lhand -5.03324 15.4813
lfingers 7.12502
lthumb 20.7615 44.3907
rfemur -87.5791 8.0413 30.9741
rtibia 145.236
rfoot -37.2554 -34.6384
rtoes -37.622
lfemur -87.1663 33.4969 -22.1819
ltibia 146.726
lfoot -18.4101 24.0159
ltoes -4.05646
205
root 2.30134 8.12332 16.6508 -152.949 -4.72363 175.5
lowerback 40.4403 3.79864 -1.78836
upperback 13.3211 -0.627278 -2.62537
thorax -4.70946 -1.87331 -1.48597
lowerneck -34.8264 -3.84032 -2.00502
upperneck 21.7265 -6.88027 7.93087
head 13.417 -1.99233 2.04579
rclavicle -2.43511e-014 3.73715e-014
rhumerus 38.9777 -0.537946 -68.8074
rradius 37.265
rwrist 28.7862
rhand -15.7208 -15.8359
rfingers 7.12502
rthumb 10.4695 -45.5552
lclavicle -2.43511e-014 3.73715e-014
lhumerus 52.6014 -13.764 54.4642
lradius 33.3545
lwrist -35.9059
lhand -5.90915 15.554
lfingers 7.12502
lthumb 19.9197 44.5531
rfemur -87.0853 7.34868 30.8646
rtibia 144.535
rfoot -36.844 -34.3051
rtoes -37.7885
lfemur -86.7426 33.4919 -22.443
ltibia 145.955
lfoot -17.961 23.3984
ltoes -3.89325
206
root 2.30031 8.21604 16.5009 -152.204 -4.55812 175.376
lowerback 40.1075 3.71348 -1.92702
upperback 13.2419 -0.708312 -2.65063
thorax -4.69858 -1.88984 -1.41254
lowerneck -34.7268 -3.73511 -1.98472
upperneck 21.7158 -6.67576 7.73701
head 13.3701 -1.93216 2.00894
rclavicle -2.24627e-014 5.56597e-015
rhumerus 38.4778 -0.0472389 -69.1289
rradius 37.3636
rwrist 28.7793
rhand -16.4216 -15.7722
rfingers 7.12502
rthumb 9.79346 -45.5244
lclavicle -2.24627e-014 5.56597e-015
lhumerus 51.6636 -13.9587 54.2027
lradius 33.66
lwrist -35.6698
lhand -6.76463 15.6283
lfingers 7.12502
lthumb 19.0972 44.7107
rfemur -86.5862 6.6716 30.7414
rtibia 143.78
rfoot -36.4247 -33.9234
rtoes -37.9541
lfemur -86.3282 33.502 -22.6898
ltibia 145.153
lfoot -17.5035 22.7216
ltoes -3.63933
